<svg width="30" height="30" viewBox="0 0 30 30" fill="none" xmlns="http://www.w3.org/2000/svg">
<path d="M21.5625 9.84375H15.9375V6.09375H26.25C26.6228 6.09333 26.9803 5.94504 27.2439 5.68141C27.5075 5.41777 27.6558 5.06033 27.6562 4.6875V0.9375H25.7812V4.21875H15.4688C15.0959 4.21917 14.7385 4.36746 14.4748 4.63109C14.2112 4.89473 14.0629 5.25217 14.0625 5.625V9.84375H8.4375C6.44907 9.846 4.54272 10.6369 3.13668 12.0429C1.73065 13.449 0.939749 15.3553 0.9375 17.3438V23.259C0.939097 24.6733 1.50167 26.0293 2.50179 27.0295C3.50191 28.0296 4.8579 28.5922 6.27228 28.5938H6.37775C7.16006 28.5948 7.93297 28.4233 8.64144 28.0915C9.3499 27.7598 9.97649 27.2758 10.4766 26.6742L13.5645 22.9688H16.4137L19.4996 26.9804C20.179 27.8633 21.1177 28.5114 22.184 28.8338C23.2504 29.1562 24.3909 29.1366 25.4456 28.7779C26.5003 28.4192 27.4163 27.7392 28.0649 26.8335C28.7136 25.9278 29.0624 24.8417 29.0625 23.7277V17.3438C29.0603 15.3553 28.2694 13.449 26.8633 12.0429C25.4573 10.6369 23.5509 9.846 21.5625 9.84375ZM27.1875 23.7277C27.1875 24.4503 26.9612 25.1547 26.5406 25.7421C26.1199 26.3295 25.5258 26.7705 24.8417 27.0031C24.1577 27.2358 23.418 27.2484 22.7263 27.0393C22.0347 26.8302 21.4259 26.4098 20.9854 25.8371L17.3366 21.0938H12.6859L9.03586 25.4739C8.71157 25.864 8.30525 26.1778 7.84584 26.393C7.38643 26.6081 6.88523 26.7194 6.37793 26.7188H6.27246C5.35515 26.7178 4.47569 26.353 3.82704 25.7043C3.17839 25.0557 2.81352 24.1763 2.8125 23.259V17.3438C2.81417 15.8524 3.40735 14.4227 4.46187 13.3681C5.5164 12.3136 6.94617 11.7204 8.4375 11.7188H21.5625C23.0538 11.7204 24.4836 12.3136 25.5381 13.3681C26.5927 14.4227 27.1858 15.8524 27.1875 17.3438V23.7277Z" fill="white"/>
</svg>
