<svg width="30" height="30" viewBox="0 0 30 30" fill="none" xmlns="http://www.w3.org/2000/svg">
<path d="M26.7898 0.00213858C27.6406 0.00213858 28.4566 0.340134 29.0582 0.941769C29.6599 1.5434 29.9979 2.3594 29.9979 3.21024V6.19591C29.9979 7.18076 29.7259 8.14648 29.2119 8.98656C28.6979 9.82663 27.9618 10.5084 27.0849 10.9567L18.1258 15.5336C19.7015 16.2482 20.9849 17.4808 21.7624 19.0264C22.54 20.572 22.7647 22.3373 22.3992 24.0284C22.0336 25.7195 21.0999 27.2344 19.7535 28.3209C18.407 29.4074 16.7291 30 14.9989 30C13.2688 30 11.5908 29.4074 10.2444 28.3209C8.89793 27.2344 7.96423 25.7195 7.59871 24.0284C7.23319 22.3373 7.4579 20.572 8.23543 19.0264C9.01296 17.4808 10.2964 16.2482 11.8721 15.5336L2.91509 10.9567C2.09796 10.5394 1.40196 9.91887 0.894051 9.15476C0.38614 8.39064 0.0834055 7.50868 0.0149711 6.59371L0 6.19591V3.2081C0 2.35726 0.337995 1.54127 0.939631 0.939631C1.54127 0.337995 2.35726 0 3.2081 0H26.7898V0.00213858ZM14.9989 16.9986C14.2855 16.9986 13.5791 17.1392 12.9201 17.4122C12.261 17.6852 11.6621 18.0853 11.1577 18.5898C10.6532 19.0942 10.2531 19.6931 9.98007 20.3521C9.70707 21.0112 9.56655 21.7176 9.56655 22.431C9.56655 23.1444 9.70707 23.8508 9.98007 24.5099C10.2531 25.169 10.6532 25.7679 11.1577 26.2723C11.6621 26.7767 12.261 27.1769 12.9201 27.4499C13.5791 27.7229 14.2855 27.8634 14.9989 27.8634C16.4397 27.8634 17.8214 27.2911 18.8402 26.2723C19.859 25.2535 20.4313 23.8718 20.4313 22.431C20.4313 20.9903 19.859 19.6085 18.8402 18.5898C17.8214 17.571 16.4397 16.9986 14.9989 16.9986ZM20.4313 2.14087H9.56655V11.9534L14.5134 14.4814C14.6641 14.5583 14.8308 14.5985 15 14.5985C15.1692 14.5985 15.3359 14.5583 15.4866 14.4814L20.4292 11.9534V2.14087H20.4313ZM7.42782 2.14087H3.2081C2.92449 2.14087 2.65249 2.25354 2.45194 2.45408C2.2514 2.65463 2.13873 2.92662 2.13873 3.21024V6.19591L2.1537 6.49533C2.20417 7.03267 2.38939 7.54859 2.6922 7.99534C2.99502 8.44209 3.40565 8.80522 3.88608 9.05112L7.42782 10.8605V2.14087ZM26.7898 2.14087H22.5679V10.8605L26.1118 9.05112C26.6377 8.78218 27.0791 8.37328 27.3874 7.86948C27.6957 7.36569 27.8589 6.78656 27.8591 6.19591V3.2081C27.8591 2.92449 27.7465 2.65249 27.5459 2.45194C27.3454 2.2514 27.0734 2.13873 26.7898 2.13873V2.14087Z" fill="white"/>
</svg>
