<svg width="30" height="30" viewBox="0 0 30 30" fill="none" xmlns="http://www.w3.org/2000/svg">
<path fill-rule="evenodd" clip-rule="evenodd" d="M5 0.833333C5 0.61232 5.0878 0.400358 5.24408 0.244078C5.40036 0.0877975 5.61232 0 5.83333 0H24.1667C24.3877 0 24.5996 0.0877975 24.7559 0.244078C24.9122 0.400358 25 0.61232 25 0.833333V1.66667H29.1667C29.3877 1.66667 29.5996 1.75446 29.7559 1.91074C29.9122 2.06702 30 2.27899 30 2.5V7.5C30 8.60507 29.561 9.66488 28.7796 10.4463C27.9982 11.2277 26.9384 11.6667 25.8333 11.6667H24.4308C23.1467 15.3 19.8225 17.97 15.8333 18.2992V23.3333H21.6667C21.8877 23.3333 22.0996 23.4211 22.2559 23.5774C22.4122 23.7337 22.5 23.9457 22.5 24.1667V29.1667C22.5 29.3877 22.4122 29.5996 22.2559 29.7559C22.0996 29.9122 21.8877 30 21.6667 30H8.33333C8.11232 30 7.90036 29.9122 7.74408 29.7559C7.5878 29.5996 7.5 29.3877 7.5 29.1667V24.1667C7.5 23.9457 7.5878 23.7337 7.74408 23.5774C7.90036 23.4211 8.11232 23.3333 8.33333 23.3333H14.1667V18.2992C10.1783 17.97 6.85333 15.3 5.56917 11.6667H4.16667C3.0616 11.6667 2.00179 11.2277 1.22039 10.4463C0.438987 9.66488 0 8.60507 0 7.5V2.5C0 2.27899 0.0877975 2.06702 0.244078 1.91074C0.400358 1.75446 0.61232 1.66667 0.833333 1.66667H5V0.833333ZM23.3333 8.33333V1.66667H6.66667V8.33333C6.66667 12.9358 10.3975 16.6667 15 16.6667C19.6025 16.6667 23.3333 12.9358 23.3333 8.33333ZM25 3.33333V10H25.8333C26.4964 10 27.1323 9.73661 27.6011 9.26777C28.0699 8.79893 28.3333 8.16304 28.3333 7.5V3.33333H25ZM1.66667 3.33333H5V10H4.16667C3.50363 10 2.86774 9.73661 2.3989 9.26777C1.93006 8.79893 1.66667 8.16304 1.66667 7.5V3.33333ZM9.16667 25V28.3333H20.8333V25H9.16667Z" fill="white"/>
</svg>
