<svg width="36" height="26" viewBox="0 0 36 26" fill="none" xmlns="http://www.w3.org/2000/svg">
<path d="M32.7356 9.34186C31.0271 8.41977 28.7542 7.76977 26.2373 7.45233V6.34884C26.2373 4.51977 24.7729 2.85698 22.1186 1.67791C19.7085 0.589535 16.5051 0 13.1186 0C9.7322 0 6.52881 0.589535 4.11864 1.67791C1.46441 2.85698 0 4.51977 0 6.34884V12.3953C0 14.2244 1.46441 15.8872 4.11864 17.0663C5.91652 17.8317 7.81823 18.3308 9.76271 18.5477V19.6512C9.76271 21.4802 11.2271 23.143 13.8814 24.3221C16.2915 25.4105 19.4949 26 22.8814 26C26.2678 26 29.4712 25.4105 31.8814 24.3221C34.5356 23.143 36 21.4802 36 19.6512V13.6047C36 11.9872 34.8407 10.4756 32.7356 9.34186ZM31.8508 10.9291C33.3458 11.7453 34.1695 12.6826 34.1695 13.6047C34.1695 15.7512 29.5322 18.1395 22.8814 18.1395C21.8005 18.1362 20.7207 18.0706 19.6475 17.943C20.4945 17.7198 21.3211 17.4265 22.1186 17.0663C24.7729 15.8872 26.2373 14.2244 26.2373 12.3953V9.28139C28.4339 9.58372 30.4017 10.1581 31.8508 10.9291ZM10.7847 16.8244H10.739C10.1898 16.7791 9.65593 16.7035 9.15254 16.6279V12.4105C10.4659 12.6002 11.7914 12.6962 13.1186 12.6977C14.4459 12.6962 15.7714 12.6002 17.0847 12.4105V16.6279C15.773 16.8338 14.4467 16.9349 13.1186 16.9302C12.3394 16.9341 11.5604 16.8988 10.7847 16.8244ZM24.4068 9.6593V12.3953C24.4068 13.8314 22.3169 15.3884 18.9153 16.25V12.0628C20.0169 11.8271 21.0906 11.4775 22.1186 11.0198C22.9418 10.6745 23.712 10.2165 24.4068 9.6593ZM13.1186 1.81395C19.7695 1.81395 24.4068 4.20233 24.4068 6.34884C24.4068 8.49535 19.7695 10.8837 13.1186 10.8837C6.4678 10.8837 1.83051 8.49535 1.83051 6.34884C1.83051 4.20233 6.4678 1.81395 13.1186 1.81395ZM1.83051 12.3953V9.6593C2.52532 10.2165 3.29553 10.6745 4.11864 11.0198C5.14668 11.4775 6.22036 11.8271 7.32203 12.0628V16.25C3.92034 15.3884 1.83051 13.8314 1.83051 12.3953ZM11.5932 19.6512V18.6988C12.0966 18.7291 12.6 18.7442 13.1186 18.7442C13.6373 18.7442 14.3085 18.7291 14.9034 18.6837C15.6128 18.9511 16.3421 19.1634 17.0847 19.3186V23.5058C13.6831 22.6442 11.5932 21.0872 11.5932 19.6512ZM18.9153 23.8837V19.6663C20.2287 19.8554 21.5541 19.9514 22.8814 19.9535C24.2086 19.952 25.5341 19.856 26.8475 19.6663V23.8837C24.219 24.2868 21.5437 24.2868 18.9153 23.8837ZM28.678 23.5058V19.3186C29.7796 19.0829 30.8533 18.7333 31.8814 18.2756C32.7045 17.9303 33.4747 17.4723 34.1695 16.9151V19.6512C34.1695 21.0872 32.0797 22.6442 28.678 23.5058Z" fill="white"/>
</svg>
